<?xml version="1.0" encoding="UTF-8"?>
<!-- Generator: Adobe Illustrator 16.0.0, SVG Export Plug-In . SVG Version: 6.00 Build 0)  -->
<!DOCTYPE svg PUBLIC "-//W3C//DTD SVG 1.1 Tiny//EN" "http://www.w3.org/Graphics/SVG/1.1/DTD/svg11-tiny.dtd">
<svg version="1.1" baseProfile="tiny" id="Layer_1" xmlns="http://www.w3.org/2000/svg" xmlns:xlink="http://www.w3.org/1999/xlink" x="0px" y="0px" width="480px" height="480px" viewBox="0 0 480 480" xml:space="preserve">
<path fill="#FFFFFF" d="M470.135,430.38c-0.468-0.468-0.952-0.917-1.462-1.357c-0.354-0.422-0.722-0.825-1.104-1.21L336.174,296.418  C358.689,265.773,372,227.943,372,187C372,84.827,289.173,2,187,2S2,84.827,2,187s82.827,185,185,185  c41.229,0,79.305-13.493,110.062-36.296l131.325,131.327c0.375,0.373,0.772,0.734,1.188,1.08c0.438,0.508,0.894,0.998,1.361,1.467  c5.235,5.234,12.195,8.117,19.599,8.117s14.363-2.883,19.6-8.118C480.94,458.77,480.94,441.187,470.135,430.38z M59.192,187  c0-70.586,57.222-127.808,127.808-127.808S314.808,116.414,314.808,187S257.586,314.808,187,314.808S59.192,257.586,59.192,187z"/>
</svg>